<mxfile host="app.diagrams.net" modified="2024-05-29T03:46:04.577Z" agent="Mozilla/5.0 (Windows NT 10.0; Win64; x64) AppleWebKit/537.36 (KHTML, like Gecko) Chrome/125.0.0.0 Safari/537.36" etag="ITR2OkupKTKb5EK76pAq" version="24.4.6" type="device">
  <diagram name="Page-1" id="oQs5Msb84dRmakOZ9Pgx">
    <mxGraphModel dx="1235" dy="686" grid="1" gridSize="10" guides="1" tooltips="1" connect="1" arrows="1" fold="1" page="1" pageScale="1" pageWidth="850" pageHeight="1100" math="0" shadow="0">
      <root>
        <mxCell id="0" />
        <mxCell id="1" parent="0" />
        <mxCell id="B8zF1UmSwCHc9ANd8677-1" value="&lt;font style=&quot;font-size: 24px;&quot;&gt;Graph of Binary Search Tree&lt;/font&gt;" style="text;html=1;align=center;verticalAlign=middle;whiteSpace=wrap;rounded=0;" vertex="1" parent="1">
          <mxGeometry x="240" y="120" width="320" height="40" as="geometry" />
        </mxCell>
        <mxCell id="B8zF1UmSwCHc9ANd8677-2" value="" style="ellipse;whiteSpace=wrap;html=1;aspect=fixed;fillColor=#CCCCCC;" vertex="1" parent="1">
          <mxGeometry x="370" y="200" width="60" height="60" as="geometry" />
        </mxCell>
        <mxCell id="B8zF1UmSwCHc9ANd8677-3" value="&lt;font style=&quot;font-size: 18px;&quot;&gt;900&lt;/font&gt;" style="text;html=1;align=center;verticalAlign=middle;whiteSpace=wrap;rounded=0;" vertex="1" parent="1">
          <mxGeometry x="370" y="215" width="60" height="30" as="geometry" />
        </mxCell>
        <mxCell id="B8zF1UmSwCHc9ANd8677-5" value="" style="ellipse;whiteSpace=wrap;html=1;aspect=fixed;fillColor=#808080;" vertex="1" parent="1">
          <mxGeometry x="450" y="290" width="60" height="60" as="geometry" />
        </mxCell>
        <mxCell id="B8zF1UmSwCHc9ANd8677-6" value="&lt;font style=&quot;font-size: 18px;&quot;&gt;1050&lt;/font&gt;" style="text;html=1;align=center;verticalAlign=middle;whiteSpace=wrap;rounded=0;" vertex="1" parent="1">
          <mxGeometry x="450" y="305" width="60" height="30" as="geometry" />
        </mxCell>
        <mxCell id="B8zF1UmSwCHc9ANd8677-8" value="" style="endArrow=none;html=1;rounded=0;entryX=1;entryY=1;entryDx=0;entryDy=0;strokeColor=#000000;" edge="1" parent="1" target="B8zF1UmSwCHc9ANd8677-2">
          <mxGeometry width="50" height="50" relative="1" as="geometry">
            <mxPoint x="460" y="300" as="sourcePoint" />
            <mxPoint x="330" y="350" as="targetPoint" />
          </mxGeometry>
        </mxCell>
        <mxCell id="B8zF1UmSwCHc9ANd8677-9" value="&lt;font style=&quot;font-size: 18px;&quot;&gt;1050&lt;/font&gt;" style="text;html=1;align=center;verticalAlign=middle;whiteSpace=wrap;rounded=0;" vertex="1" parent="1">
          <mxGeometry x="450" y="305" width="60" height="30" as="geometry" />
        </mxCell>
        <mxCell id="B8zF1UmSwCHc9ANd8677-12" value="" style="ellipse;whiteSpace=wrap;html=1;aspect=fixed;fillColor=#CCCCCC;" vertex="1" parent="1">
          <mxGeometry x="290" y="290" width="60" height="60" as="geometry" />
        </mxCell>
        <mxCell id="B8zF1UmSwCHc9ANd8677-13" value="" style="endArrow=none;html=1;strokeWidth=2;rounded=0;entryX=0;entryY=1;entryDx=0;entryDy=0;exitX=1;exitY=0;exitDx=0;exitDy=0;" edge="1" parent="1" source="B8zF1UmSwCHc9ANd8677-12" target="B8zF1UmSwCHc9ANd8677-2">
          <mxGeometry width="50" height="50" relative="1" as="geometry">
            <mxPoint x="290" y="270" as="sourcePoint" />
            <mxPoint x="340" y="220" as="targetPoint" />
          </mxGeometry>
        </mxCell>
        <mxCell id="B8zF1UmSwCHc9ANd8677-14" value="&lt;font style=&quot;font-size: 18px;&quot;&gt;165&lt;/font&gt;" style="text;html=1;align=center;verticalAlign=middle;whiteSpace=wrap;rounded=0;" vertex="1" parent="1">
          <mxGeometry x="290" y="305" width="60" height="30" as="geometry" />
        </mxCell>
        <mxCell id="B8zF1UmSwCHc9ANd8677-15" value="" style="ellipse;whiteSpace=wrap;html=1;aspect=fixed;fillColor=#808080;" vertex="1" parent="1">
          <mxGeometry x="210" y="400" width="60" height="60" as="geometry" />
        </mxCell>
        <mxCell id="B8zF1UmSwCHc9ANd8677-16" value="&lt;font style=&quot;font-size: 18px;&quot;&gt;160&lt;/font&gt;" style="text;html=1;align=center;verticalAlign=middle;whiteSpace=wrap;rounded=0;" vertex="1" parent="1">
          <mxGeometry x="210" y="415" width="60" height="30" as="geometry" />
        </mxCell>
        <mxCell id="B8zF1UmSwCHc9ANd8677-17" value="" style="endArrow=none;html=1;strokeWidth=2;rounded=0;entryX=0;entryY=1;entryDx=0;entryDy=0;" edge="1" parent="1" target="B8zF1UmSwCHc9ANd8677-12">
          <mxGeometry width="50" height="50" relative="1" as="geometry">
            <mxPoint x="250" y="400" as="sourcePoint" />
            <mxPoint x="300" y="350" as="targetPoint" />
          </mxGeometry>
        </mxCell>
        <mxCell id="B8zF1UmSwCHc9ANd8677-18" value="" style="ellipse;whiteSpace=wrap;html=1;aspect=fixed;fillColor=#808080;" vertex="1" parent="1">
          <mxGeometry x="150" y="490" width="60" height="60" as="geometry" />
        </mxCell>
        <mxCell id="B8zF1UmSwCHc9ANd8677-19" value="&lt;font style=&quot;font-size: 18px;&quot;&gt;137&lt;/font&gt;" style="text;html=1;align=center;verticalAlign=middle;whiteSpace=wrap;rounded=0;" vertex="1" parent="1">
          <mxGeometry x="150" y="505" width="60" height="30" as="geometry" />
        </mxCell>
        <mxCell id="B8zF1UmSwCHc9ANd8677-20" value="" style="endArrow=none;html=1;rounded=0;entryX=0;entryY=1;entryDx=0;entryDy=0;exitX=1;exitY=0;exitDx=0;exitDy=0;" edge="1" parent="1" source="B8zF1UmSwCHc9ANd8677-18" target="B8zF1UmSwCHc9ANd8677-15">
          <mxGeometry width="50" height="50" relative="1" as="geometry">
            <mxPoint x="180" y="500" as="sourcePoint" />
            <mxPoint x="210" y="460" as="targetPoint" />
          </mxGeometry>
        </mxCell>
        <mxCell id="B8zF1UmSwCHc9ANd8677-21" value="" style="ellipse;whiteSpace=wrap;html=1;aspect=fixed;fillColor=#CCCCCC;" vertex="1" parent="1">
          <mxGeometry x="365" y="400" width="60" height="60" as="geometry" />
        </mxCell>
        <mxCell id="B8zF1UmSwCHc9ANd8677-22" value="" style="endArrow=none;html=1;strokeWidth=2;rounded=0;entryX=1;entryY=1;entryDx=0;entryDy=0;exitX=0;exitY=0;exitDx=0;exitDy=0;" edge="1" parent="1" source="B8zF1UmSwCHc9ANd8677-21" target="B8zF1UmSwCHc9ANd8677-12">
          <mxGeometry width="50" height="50" relative="1" as="geometry">
            <mxPoint x="310" y="410" as="sourcePoint" />
            <mxPoint x="360" y="360" as="targetPoint" />
          </mxGeometry>
        </mxCell>
        <mxCell id="B8zF1UmSwCHc9ANd8677-23" value="&lt;font style=&quot;font-size: 18px;&quot;&gt;500&lt;/font&gt;" style="text;html=1;align=center;verticalAlign=middle;whiteSpace=wrap;rounded=0;" vertex="1" parent="1">
          <mxGeometry x="365" y="415" width="60" height="30" as="geometry" />
        </mxCell>
        <mxCell id="B8zF1UmSwCHc9ANd8677-24" value="" style="ellipse;whiteSpace=wrap;html=1;aspect=fixed;fillColor=#808080;" vertex="1" parent="1">
          <mxGeometry x="430" y="500" width="60" height="60" as="geometry" />
        </mxCell>
        <mxCell id="B8zF1UmSwCHc9ANd8677-25" value="&lt;font style=&quot;font-size: 18px;&quot;&gt;600&lt;/font&gt;" style="text;html=1;align=center;verticalAlign=middle;whiteSpace=wrap;rounded=0;" vertex="1" parent="1">
          <mxGeometry x="430" y="515" width="60" height="30" as="geometry" />
        </mxCell>
        <mxCell id="B8zF1UmSwCHc9ANd8677-26" value="" style="endArrow=none;html=1;strokeWidth=2;rounded=0;entryX=1;entryY=1;entryDx=0;entryDy=0;exitX=0;exitY=0;exitDx=0;exitDy=0;" edge="1" parent="1" source="B8zF1UmSwCHc9ANd8677-24" target="B8zF1UmSwCHc9ANd8677-21">
          <mxGeometry width="50" height="50" relative="1" as="geometry">
            <mxPoint x="340" y="550" as="sourcePoint" />
            <mxPoint x="390" y="500" as="targetPoint" />
          </mxGeometry>
        </mxCell>
        <mxCell id="B8zF1UmSwCHc9ANd8677-27" value="" style="ellipse;whiteSpace=wrap;html=1;aspect=fixed;fillColor=#808080;" vertex="1" parent="1">
          <mxGeometry x="490" y="610" width="60" height="60" as="geometry" />
        </mxCell>
        <mxCell id="B8zF1UmSwCHc9ANd8677-28" value="&lt;font style=&quot;font-size: 18px;&quot;&gt;770&lt;/font&gt;" style="text;html=1;align=center;verticalAlign=middle;whiteSpace=wrap;rounded=0;" vertex="1" parent="1">
          <mxGeometry x="490" y="625" width="60" height="30" as="geometry" />
        </mxCell>
        <mxCell id="B8zF1UmSwCHc9ANd8677-29" value="" style="endArrow=none;html=1;strokeWidth=2;rounded=0;entryX=1;entryY=1;entryDx=0;entryDy=0;exitX=0;exitY=0;exitDx=0;exitDy=0;" edge="1" parent="1" source="B8zF1UmSwCHc9ANd8677-27" target="B8zF1UmSwCHc9ANd8677-24">
          <mxGeometry width="50" height="50" relative="1" as="geometry">
            <mxPoint x="410" y="650" as="sourcePoint" />
            <mxPoint x="460" y="600" as="targetPoint" />
          </mxGeometry>
        </mxCell>
        <mxCell id="B8zF1UmSwCHc9ANd8677-30" value="" style="ellipse;whiteSpace=wrap;html=1;aspect=fixed;fillColor=#808080;" vertex="1" parent="1">
          <mxGeometry x="560" y="700" width="60" height="60" as="geometry" />
        </mxCell>
        <mxCell id="B8zF1UmSwCHc9ANd8677-31" value="&lt;font style=&quot;font-size: 18px;&quot;&gt;832&lt;/font&gt;" style="text;html=1;align=center;verticalAlign=middle;whiteSpace=wrap;rounded=0;" vertex="1" parent="1">
          <mxGeometry x="560" y="715" width="60" height="30" as="geometry" />
        </mxCell>
        <mxCell id="B8zF1UmSwCHc9ANd8677-32" value="" style="endArrow=none;html=1;strokeWidth=2;rounded=0;entryX=1;entryY=1;entryDx=0;entryDy=0;exitX=0;exitY=0;exitDx=0;exitDy=0;" edge="1" parent="1" source="B8zF1UmSwCHc9ANd8677-30" target="B8zF1UmSwCHc9ANd8677-27">
          <mxGeometry width="50" height="50" relative="1" as="geometry">
            <mxPoint x="370" y="770" as="sourcePoint" />
            <mxPoint x="420" y="720" as="targetPoint" />
          </mxGeometry>
        </mxCell>
        <mxCell id="B8zF1UmSwCHc9ANd8677-33" value="" style="ellipse;whiteSpace=wrap;html=1;aspect=fixed;fillColor=#808080;" vertex="1" parent="1">
          <mxGeometry x="300" y="487.5" width="65" height="65" as="geometry" />
        </mxCell>
        <mxCell id="B8zF1UmSwCHc9ANd8677-34" value="&lt;font style=&quot;font-size: 18px;&quot;&gt;300&lt;/font&gt;" style="text;html=1;align=center;verticalAlign=middle;whiteSpace=wrap;rounded=0;" vertex="1" parent="1">
          <mxGeometry x="303" y="503.5" width="60" height="30" as="geometry" />
        </mxCell>
        <mxCell id="B8zF1UmSwCHc9ANd8677-35" value="" style="endArrow=none;dashed=1;html=1;dashPattern=1 3;strokeWidth=2;rounded=0;entryX=0;entryY=1;entryDx=0;entryDy=0;exitX=1;exitY=0;exitDx=0;exitDy=0;" edge="1" parent="1" source="B8zF1UmSwCHc9ANd8677-33" target="B8zF1UmSwCHc9ANd8677-21">
          <mxGeometry width="50" height="50" relative="1" as="geometry">
            <mxPoint x="310" y="680" as="sourcePoint" />
            <mxPoint x="360" y="630" as="targetPoint" />
          </mxGeometry>
        </mxCell>
      </root>
    </mxGraphModel>
  </diagram>
</mxfile>
